<svg width="1385" height="560" viewBox="0 0 1385 560" fill="none" xmlns="http://www.w3.org/2000/svg"><path fill-rule="evenodd" clip-rule="evenodd" d="M279.295 0c155.163 0 279.294 125.542 279.294 279.295 0 155.163-125.541 279.294-279.294 279.294C125.542 560 0 434.458 0 279.295 0 125.542 125.542 0 279.295 0z" fill="#D7002C"/><path fill-rule="evenodd" clip-rule="evenodd" d="M126.952 132.594h166.449c67.707 0 136.826 47.96 136.826 145.29 0 97.33-69.119 145.29-136.826 145.29H170.68V266.6h71.94v86.045h47.959c31.033 0 67.708-35.265 67.708-74.761 0-39.496-35.264-74.761-67.708-74.761h-78.992c-35.265 0-63.476-23.979-84.635-70.529z" fill="#fff"/><path d="M752.695 226h-74.414V53.2656h74.414c10.703.1563 19.61 1.4063 26.719 3.75C791.523 61 801.328 68.3047 808.828 78.9297c6.016 8.5937 10.117 17.8906 12.305 27.8903 2.187 10 3.281 19.532 3.281 28.594 0 22.969-4.609 42.422-13.828 58.359-12.5 21.485-31.797 32.227-57.891 32.227zm26.836-128.6719c-5.547-9.375-16.523-14.0625-32.929-14.0625H713.32V196h33.282c17.031 0 28.906-8.398 35.625-25.195 3.671-9.219 5.507-20.196 5.507-32.93 0-17.578-2.734-31.094-8.203-40.5469zm173.321 93.1639h-63.633L877.266 226h-37.735l61.641-172.7344h40.781L1003.12 226h-39.136l-11.132-35.508zm-10.079-29.765l-21.562-67.9692-22.266 67.9692h43.828zm82.387-107.4614h36.09V194.945h85.55V226h-121.64V53.2656zm247.85 137.2264h-63.63L1197.42 226h-37.73l61.64-172.7344h40.78L1323.28 226h-39.14l-11.13-35.508zm-10.08-29.765l-21.56-67.9692-22.27 67.9692h43.83z" fill="#2D2626"/><path d="M817.969 496h-36.094l-70.547-122.695V496h-33.633V323.266h37.852l68.789 120.586V323.266h33.633V496zm153.984-75.469h-83.906v44.414h95.625V496H852.773V323.266h126.68v30.586h-91.406v36.679h83.906v30zm207.887-97.265h36.68L1167.89 496h-34.45l-20.86-101.016-6.1-33.398-6.09 33.398L1079.53 496h-33.51l-48.989-172.734h38.319l22.85 98.906 4.92 27.539 5.04-26.953 19.46-99.492h38.08l20.51 98.906 5.27 27.539 5.28-26.484 23.08-99.961zm121.29 147.773c8.52 0 15.43-.937 20.75-2.812 10.07-3.594 15.11-10.274 15.11-20.039 0-5.704-2.5-10.118-7.5-13.243-5-3.047-12.85-5.742-23.55-8.086l-18.28-4.101c-17.97-4.063-30.39-8.477-37.27-13.242-11.64-7.969-17.46-20.43-17.46-37.383 0-15.469 5.62-28.321 16.87-38.555 11.25-10.234 27.78-15.351 49.58-15.351 18.2 0 33.71 4.843 46.52 14.531 12.89 9.609 19.65 23.594 20.27 41.953h-34.69c-.62-10.391-5.15-17.773-13.59-22.149-5.62-2.89-12.62-4.335-20.98-4.335-9.29 0-16.71 1.875-22.26 5.625-5.55 3.75-8.32 8.984-8.32 15.703 0 6.172 2.73 10.781 8.2 13.828 3.52 2.031 11.02 4.414 22.5 7.148l29.77 7.149c13.04 3.125 22.89 7.304 29.53 12.539 10.31 8.125 15.47 19.883 15.47 35.273 0 15.781-6.06 28.906-18.17 39.375-12.03 10.391-29.06 15.586-51.09 15.586-22.5 0-40.2-5.117-53.09-15.351-12.89-10.313-19.33-24.454-19.33-42.422h34.45c1.09 7.89 3.24 13.789 6.45 17.695 5.86 7.109 15.89 10.664 30.11 10.664z" fill="#D7002C"/></svg>